G04 #@! TF.GenerationSoftware,KiCad,Pcbnew,7.0.1*
G04 #@! TF.CreationDate,2023-04-28T09:13:36+02:00*
G04 #@! TF.ProjectId,ET-Abschlussgadget_2023-rounded,45542d41-6273-4636-986c-757373676164,rev?*
G04 #@! TF.SameCoordinates,Original*
G04 #@! TF.FileFunction,Copper,L1,Top*
G04 #@! TF.FilePolarity,Positive*
%FSLAX46Y46*%
G04 Gerber Fmt 4.6, Leading zero omitted, Abs format (unit mm)*
G04 Created by KiCad (PCBNEW 7.0.1) date 2023-04-28 09:13:36*
%MOMM*%
%LPD*%
G01*
G04 APERTURE LIST*
G04 APERTURE END LIST*
G04 #@! TA.AperFunction,NonConductor*
G36*
X183004042Y-80000764D02*
G01*
X183083586Y-80005978D01*
X183083767Y-80005991D01*
X183261587Y-80018709D01*
X183276904Y-80020772D01*
X183388378Y-80042945D01*
X183390437Y-80043374D01*
X183530240Y-80073786D01*
X183543703Y-80077522D01*
X183657725Y-80116228D01*
X183661074Y-80117420D01*
X183788808Y-80165062D01*
X183800300Y-80170024D01*
X183910687Y-80224461D01*
X183915187Y-80226798D01*
X184032478Y-80290844D01*
X184041942Y-80296574D01*
X184145269Y-80365615D01*
X184150688Y-80369450D01*
X184256727Y-80448830D01*
X184264145Y-80454844D01*
X184357976Y-80537131D01*
X184363898Y-80542678D01*
X184457320Y-80636100D01*
X184462867Y-80642022D01*
X184545150Y-80735848D01*
X184551173Y-80743278D01*
X184588691Y-80793396D01*
X184630548Y-80849310D01*
X184634383Y-80854729D01*
X184703424Y-80958056D01*
X184709154Y-80967520D01*
X184773183Y-81084779D01*
X184775564Y-81089363D01*
X184829969Y-81199687D01*
X184834938Y-81211196D01*
X184882556Y-81338863D01*
X184883793Y-81342338D01*
X184922470Y-81456276D01*
X184926217Y-81469777D01*
X184956613Y-81609508D01*
X184957064Y-81611675D01*
X184979224Y-81723080D01*
X184981291Y-81738425D01*
X184993995Y-81916046D01*
X184994045Y-81916781D01*
X184999234Y-81995942D01*
X184999500Y-82004053D01*
X184999500Y-131995947D01*
X184999234Y-132004058D01*
X184994045Y-132083217D01*
X184993995Y-132083952D01*
X184981291Y-132261573D01*
X184979224Y-132276918D01*
X184957064Y-132388323D01*
X184956613Y-132390490D01*
X184926217Y-132530221D01*
X184922470Y-132543722D01*
X184883793Y-132657660D01*
X184882556Y-132661135D01*
X184834938Y-132788802D01*
X184829969Y-132800311D01*
X184775564Y-132910635D01*
X184773183Y-132915219D01*
X184709154Y-133032478D01*
X184703424Y-133041942D01*
X184634383Y-133145269D01*
X184630548Y-133150688D01*
X184551181Y-133256711D01*
X184545142Y-133264160D01*
X184462867Y-133357976D01*
X184457320Y-133363898D01*
X184363898Y-133457320D01*
X184357976Y-133462867D01*
X184264160Y-133545142D01*
X184256711Y-133551181D01*
X184150688Y-133630548D01*
X184145269Y-133634383D01*
X184041942Y-133703424D01*
X184032478Y-133709154D01*
X183915219Y-133773183D01*
X183910635Y-133775564D01*
X183800311Y-133829969D01*
X183788802Y-133834938D01*
X183661135Y-133882556D01*
X183657660Y-133883793D01*
X183543722Y-133922470D01*
X183530221Y-133926217D01*
X183390490Y-133956613D01*
X183388323Y-133957064D01*
X183276918Y-133979224D01*
X183261573Y-133981291D01*
X183083952Y-133993995D01*
X183083217Y-133994045D01*
X183004058Y-133999234D01*
X182995947Y-133999500D01*
X102004053Y-133999500D01*
X101995942Y-133999234D01*
X101916781Y-133994045D01*
X101916046Y-133993995D01*
X101738425Y-133981291D01*
X101723080Y-133979224D01*
X101611675Y-133957064D01*
X101609508Y-133956613D01*
X101469777Y-133926217D01*
X101456276Y-133922470D01*
X101342338Y-133883793D01*
X101338863Y-133882556D01*
X101211196Y-133834938D01*
X101199687Y-133829969D01*
X101134947Y-133798043D01*
X101089348Y-133775556D01*
X101084779Y-133773183D01*
X100967520Y-133709154D01*
X100958056Y-133703424D01*
X100854729Y-133634383D01*
X100849310Y-133630548D01*
X100793396Y-133588691D01*
X100743278Y-133551173D01*
X100735848Y-133545150D01*
X100642022Y-133462867D01*
X100636100Y-133457320D01*
X100542678Y-133363898D01*
X100537131Y-133357976D01*
X100505450Y-133321851D01*
X100454844Y-133264145D01*
X100448830Y-133256727D01*
X100369450Y-133150688D01*
X100365615Y-133145269D01*
X100296574Y-133041942D01*
X100290844Y-133032478D01*
X100226798Y-132915187D01*
X100224461Y-132910687D01*
X100170024Y-132800300D01*
X100165060Y-132788802D01*
X100117420Y-132661074D01*
X100116228Y-132657725D01*
X100077522Y-132543703D01*
X100073786Y-132530240D01*
X100043374Y-132390437D01*
X100042945Y-132388378D01*
X100020772Y-132276904D01*
X100018709Y-132261587D01*
X100005991Y-132083767D01*
X100005978Y-132083586D01*
X100000764Y-132004042D01*
X100000500Y-131995935D01*
X100000500Y-128685055D01*
X102647000Y-128685055D01*
X102687709Y-128850224D01*
X102687710Y-128850225D01*
X102766766Y-129000852D01*
X102879571Y-129128183D01*
X103019570Y-129224818D01*
X103178628Y-129285140D01*
X103305128Y-129300500D01*
X103389871Y-129300500D01*
X103389872Y-129300500D01*
X103516372Y-129285140D01*
X103675430Y-129224818D01*
X103815429Y-129128183D01*
X103928234Y-129000852D01*
X104007290Y-128850225D01*
X104048000Y-128685056D01*
X104048000Y-128514944D01*
X104007290Y-128349775D01*
X103928234Y-128199148D01*
X103815429Y-128071817D01*
X103815428Y-128071816D01*
X103815427Y-128071815D01*
X103675430Y-127975182D01*
X103516372Y-127914860D01*
X103389872Y-127899500D01*
X103305128Y-127899500D01*
X103241877Y-127907180D01*
X103178627Y-127914860D01*
X103019569Y-127975182D01*
X102879572Y-128071815D01*
X102766765Y-128199149D01*
X102687709Y-128349775D01*
X102647000Y-128514945D01*
X102647000Y-128685055D01*
X100000500Y-128685055D01*
X100000500Y-125685055D01*
X102647000Y-125685055D01*
X102687709Y-125850224D01*
X102687710Y-125850225D01*
X102766766Y-126000852D01*
X102879571Y-126128183D01*
X103019570Y-126224818D01*
X103178628Y-126285140D01*
X103305128Y-126300500D01*
X103389871Y-126300500D01*
X103389872Y-126300500D01*
X103516372Y-126285140D01*
X103675430Y-126224818D01*
X103815429Y-126128183D01*
X103928234Y-126000852D01*
X104007290Y-125850225D01*
X104048000Y-125685056D01*
X104048000Y-125514944D01*
X104007290Y-125349775D01*
X103928234Y-125199148D01*
X103815429Y-125071817D01*
X103815428Y-125071816D01*
X103815427Y-125071815D01*
X103675430Y-124975182D01*
X103516372Y-124914860D01*
X103389872Y-124899500D01*
X103305128Y-124899500D01*
X103241877Y-124907180D01*
X103178627Y-124914860D01*
X103019569Y-124975182D01*
X102879572Y-125071815D01*
X102766765Y-125199149D01*
X102687709Y-125349775D01*
X102647000Y-125514945D01*
X102647000Y-125685055D01*
X100000500Y-125685055D01*
X100000500Y-82004065D01*
X100000765Y-81995956D01*
X100005954Y-81916781D01*
X100005979Y-81916401D01*
X100006004Y-81916046D01*
X100018709Y-81738407D01*
X100020771Y-81723099D01*
X100042955Y-81611573D01*
X100043364Y-81609606D01*
X100073788Y-81469749D01*
X100077519Y-81456305D01*
X100116243Y-81342230D01*
X100117404Y-81338967D01*
X100165068Y-81211177D01*
X100170017Y-81199713D01*
X100224481Y-81089272D01*
X100226777Y-81084851D01*
X100290855Y-80967501D01*
X100296562Y-80958075D01*
X100365639Y-80854694D01*
X100369425Y-80849344D01*
X100448850Y-80743246D01*
X100454823Y-80735878D01*
X100537161Y-80641989D01*
X100542648Y-80636131D01*
X100636131Y-80542648D01*
X100641989Y-80537161D01*
X100735878Y-80454823D01*
X100743246Y-80448850D01*
X100849344Y-80369425D01*
X100854694Y-80365639D01*
X100958075Y-80296562D01*
X100967501Y-80290855D01*
X101084851Y-80226777D01*
X101089272Y-80224481D01*
X101199713Y-80170017D01*
X101211177Y-80165068D01*
X101338967Y-80117404D01*
X101342230Y-80116243D01*
X101456305Y-80077519D01*
X101469749Y-80073788D01*
X101609606Y-80043364D01*
X101611573Y-80042955D01*
X101723099Y-80020771D01*
X101738407Y-80018709D01*
X101916193Y-80005992D01*
X101995957Y-80000764D01*
X102004065Y-80000500D01*
X182995935Y-80000500D01*
X183004042Y-80000764D01*
G37*
G04 #@! TD.AperFunction*
M02*
