G04 #@! TF.GenerationSoftware,KiCad,Pcbnew,7.0.1*
G04 #@! TF.CreationDate,2023-04-28T09:13:36+02:00*
G04 #@! TF.ProjectId,ET-Abschlussgadget_2023-rounded,45542d41-6273-4636-986c-757373676164,rev?*
G04 #@! TF.SameCoordinates,Original*
G04 #@! TF.FileFunction,Paste,Bot*
G04 #@! TF.FilePolarity,Positive*
%FSLAX46Y46*%
G04 Gerber Fmt 4.6, Leading zero omitted, Abs format (unit mm)*
G04 Created by KiCad (PCBNEW 7.0.1) date 2023-04-28 09:13:36*
%MOMM*%
%LPD*%
G01*
G04 APERTURE LIST*
G04 Aperture macros list*
%AMRoundRect*
0 Rectangle with rounded corners*
0 $1 Rounding radius*
0 $2 $3 $4 $5 $6 $7 $8 $9 X,Y pos of 4 corners*
0 Add a 4 corners polygon primitive as box body*
4,1,4,$2,$3,$4,$5,$6,$7,$8,$9,$2,$3,0*
0 Add four circle primitives for the rounded corners*
1,1,$1+$1,$2,$3*
1,1,$1+$1,$4,$5*
1,1,$1+$1,$6,$7*
1,1,$1+$1,$8,$9*
0 Add four rect primitives between the rounded corners*
20,1,$1+$1,$2,$3,$4,$5,0*
20,1,$1+$1,$4,$5,$6,$7,0*
20,1,$1+$1,$6,$7,$8,$9,0*
20,1,$1+$1,$8,$9,$2,$3,0*%
G04 Aperture macros list end*
%ADD10RoundRect,0.218750X0.256250X-0.218750X0.256250X0.218750X-0.256250X0.218750X-0.256250X-0.218750X0*%
%ADD11RoundRect,0.237500X-0.237500X0.250000X-0.237500X-0.250000X0.237500X-0.250000X0.237500X0.250000X0*%
%ADD12R,3.000000X3.000000*%
%ADD13C,14.000000*%
%ADD14RoundRect,0.250000X0.625000X-0.375000X0.625000X0.375000X-0.625000X0.375000X-0.625000X-0.375000X0*%
%ADD15R,1.520000X0.600000*%
%ADD16R,0.700000X1.200000*%
%ADD17RoundRect,0.237500X0.250000X0.237500X-0.250000X0.237500X-0.250000X-0.237500X0.250000X-0.237500X0*%
%ADD18RoundRect,0.150000X0.825000X0.150000X-0.825000X0.150000X-0.825000X-0.150000X0.825000X-0.150000X0*%
%ADD19RoundRect,0.237500X-0.300000X-0.237500X0.300000X-0.237500X0.300000X0.237500X-0.300000X0.237500X0*%
%ADD20RoundRect,0.237500X0.237500X-0.250000X0.237500X0.250000X-0.237500X0.250000X-0.237500X-0.250000X0*%
G04 APERTURE END LIST*
D10*
G04 #@! TO.C,D3*
X166500000Y-108787500D03*
X166500000Y-107212500D03*
G04 #@! TD*
D11*
G04 #@! TO.C,R1*
X180500000Y-107087500D03*
X180500000Y-108912500D03*
G04 #@! TD*
D12*
G04 #@! TO.C,BT1*
X111000000Y-119900000D03*
X111000000Y-96100000D03*
D13*
X111000000Y-107870000D03*
G04 #@! TD*
D14*
G04 #@! TO.C,D1*
X183300000Y-109400000D03*
X183300000Y-106600000D03*
G04 #@! TD*
D11*
G04 #@! TO.C,R7*
X149800000Y-107087500D03*
X149800000Y-108912500D03*
G04 #@! TD*
D15*
G04 #@! TO.C,SW1*
X105597500Y-129350000D03*
X105597500Y-126350000D03*
X105597500Y-124850000D03*
D16*
X102197500Y-130700000D03*
X104497500Y-130700000D03*
X102197500Y-123500000D03*
X104497500Y-123500000D03*
G04 #@! TD*
D11*
G04 #@! TO.C,R2*
X169000000Y-107087500D03*
X169000000Y-108912500D03*
G04 #@! TD*
D10*
G04 #@! TO.C,D4*
X161700000Y-108787500D03*
X161700000Y-107212500D03*
G04 #@! TD*
D11*
G04 #@! TO.C,R6*
X154600000Y-107087500D03*
X154600000Y-108912500D03*
G04 #@! TD*
D17*
G04 #@! TO.C,R5*
X138512500Y-101000000D03*
X136687500Y-101000000D03*
G04 #@! TD*
D10*
G04 #@! TO.C,D6*
X152080000Y-108787500D03*
X152080000Y-107212500D03*
G04 #@! TD*
G04 #@! TO.C,D2*
X171300000Y-108787500D03*
X171300000Y-107212500D03*
G04 #@! TD*
D18*
G04 #@! TO.C,U1*
X141000000Y-104190000D03*
X141000000Y-105460000D03*
X141000000Y-106730000D03*
X141000000Y-108000000D03*
X141000000Y-109270000D03*
X141000000Y-110540000D03*
X141000000Y-111810000D03*
X136050000Y-111810000D03*
X136050000Y-110540000D03*
X136050000Y-109270000D03*
X136050000Y-108000000D03*
X136050000Y-106730000D03*
X136050000Y-105460000D03*
X136050000Y-104190000D03*
G04 #@! TD*
D10*
G04 #@! TO.C,D5*
X156900000Y-108787500D03*
X156900000Y-107212500D03*
G04 #@! TD*
D19*
G04 #@! TO.C,C1*
X141075000Y-101000000D03*
X142800000Y-101000000D03*
G04 #@! TD*
D20*
G04 #@! TO.C,R4*
X159400000Y-108912500D03*
X159400000Y-107087500D03*
G04 #@! TD*
G04 #@! TO.C,R3*
X164200000Y-108912500D03*
X164200000Y-107087500D03*
G04 #@! TD*
M02*
