%TF.GenerationSoftware,KiCad,Pcbnew,7.0.1*%
%TF.CreationDate,2023-04-13T17:43:14+02:00*%
%TF.ProjectId,ET-Abschlussgadget_2023,45542d41-6273-4636-986c-757373676164,rev?*%
%TF.SameCoordinates,Original*%
%TF.FileFunction,Legend,Bot*%
%TF.FilePolarity,Positive*%
%FSLAX45Y45*%
G04 Gerber Fmt 4.5, Leading zero omitted, Abs format (unit mm)*
G04 Created by KiCad (PCBNEW 7.0.1) date 2023-04-13 17:43:14*
%MOMM*%
%LPD*%
G01*
G04 APERTURE LIST*
%ADD10C,0.300000*%
%ADD11C,0.150000*%
%ADD12C,0.120000*%
%ADD13C,0.500000*%
G04 APERTURE END LIST*
D10*
X11100667Y-10506190D02*
X11100667Y-10353810D01*
X11100667Y-11046190D02*
X11100667Y-10893810D01*
X11024476Y-10970000D02*
X11176857Y-10970000D01*
D11*
%TO.C,D2*%
X16392990Y-10759048D02*
X16472990Y-10759048D01*
X16472990Y-10759048D02*
X16472990Y-10740000D01*
X16472990Y-10740000D02*
X16469181Y-10728571D01*
X16469181Y-10728571D02*
X16461562Y-10720952D01*
X16461562Y-10720952D02*
X16453943Y-10717143D01*
X16453943Y-10717143D02*
X16438705Y-10713333D01*
X16438705Y-10713333D02*
X16427276Y-10713333D01*
X16427276Y-10713333D02*
X16412038Y-10717143D01*
X16412038Y-10717143D02*
X16404419Y-10720952D01*
X16404419Y-10720952D02*
X16396800Y-10728571D01*
X16396800Y-10728571D02*
X16392990Y-10740000D01*
X16392990Y-10740000D02*
X16392990Y-10759048D01*
X16465371Y-10682857D02*
X16469181Y-10679048D01*
X16469181Y-10679048D02*
X16472990Y-10671429D01*
X16472990Y-10671429D02*
X16472990Y-10652381D01*
X16472990Y-10652381D02*
X16469181Y-10644762D01*
X16469181Y-10644762D02*
X16465371Y-10640952D01*
X16465371Y-10640952D02*
X16457752Y-10637143D01*
X16457752Y-10637143D02*
X16450133Y-10637143D01*
X16450133Y-10637143D02*
X16438705Y-10640952D01*
X16438705Y-10640952D02*
X16392990Y-10686667D01*
X16392990Y-10686667D02*
X16392990Y-10637143D01*
%TO.C,BT1*%
X10384895Y-10762857D02*
X10381086Y-10751429D01*
X10381086Y-10751429D02*
X10377276Y-10747619D01*
X10377276Y-10747619D02*
X10369657Y-10743809D01*
X10369657Y-10743809D02*
X10358229Y-10743809D01*
X10358229Y-10743809D02*
X10350610Y-10747619D01*
X10350610Y-10747619D02*
X10346800Y-10751429D01*
X10346800Y-10751429D02*
X10342990Y-10759048D01*
X10342990Y-10759048D02*
X10342990Y-10789524D01*
X10342990Y-10789524D02*
X10422990Y-10789524D01*
X10422990Y-10789524D02*
X10422990Y-10762857D01*
X10422990Y-10762857D02*
X10419181Y-10755238D01*
X10419181Y-10755238D02*
X10415371Y-10751429D01*
X10415371Y-10751429D02*
X10407752Y-10747619D01*
X10407752Y-10747619D02*
X10400133Y-10747619D01*
X10400133Y-10747619D02*
X10392514Y-10751429D01*
X10392514Y-10751429D02*
X10388705Y-10755238D01*
X10388705Y-10755238D02*
X10384895Y-10762857D01*
X10384895Y-10762857D02*
X10384895Y-10789524D01*
X10422990Y-10720952D02*
X10422990Y-10675238D01*
X10342990Y-10698095D02*
X10422990Y-10698095D01*
X10342990Y-10606667D02*
X10342990Y-10652381D01*
X10342990Y-10629524D02*
X10422990Y-10629524D01*
X10422990Y-10629524D02*
X10411562Y-10637143D01*
X10411562Y-10637143D02*
X10403943Y-10644762D01*
X10403943Y-10644762D02*
X10400133Y-10652381D01*
%TO.C,D6*%
X18097990Y-10759048D02*
X18177990Y-10759048D01*
X18177990Y-10759048D02*
X18177990Y-10740000D01*
X18177990Y-10740000D02*
X18174181Y-10728571D01*
X18174181Y-10728571D02*
X18166562Y-10720952D01*
X18166562Y-10720952D02*
X18158943Y-10717143D01*
X18158943Y-10717143D02*
X18143705Y-10713333D01*
X18143705Y-10713333D02*
X18132276Y-10713333D01*
X18132276Y-10713333D02*
X18117038Y-10717143D01*
X18117038Y-10717143D02*
X18109419Y-10720952D01*
X18109419Y-10720952D02*
X18101800Y-10728571D01*
X18101800Y-10728571D02*
X18097990Y-10740000D01*
X18097990Y-10740000D02*
X18097990Y-10759048D01*
X18177990Y-10644762D02*
X18177990Y-10660000D01*
X18177990Y-10660000D02*
X18174181Y-10667619D01*
X18174181Y-10667619D02*
X18170371Y-10671429D01*
X18170371Y-10671429D02*
X18158943Y-10679048D01*
X18158943Y-10679048D02*
X18143705Y-10682857D01*
X18143705Y-10682857D02*
X18113229Y-10682857D01*
X18113229Y-10682857D02*
X18105610Y-10679048D01*
X18105610Y-10679048D02*
X18101800Y-10675238D01*
X18101800Y-10675238D02*
X18097990Y-10667619D01*
X18097990Y-10667619D02*
X18097990Y-10652381D01*
X18097990Y-10652381D02*
X18101800Y-10644762D01*
X18101800Y-10644762D02*
X18105610Y-10640952D01*
X18105610Y-10640952D02*
X18113229Y-10637143D01*
X18113229Y-10637143D02*
X18132276Y-10637143D01*
X18132276Y-10637143D02*
X18139895Y-10640952D01*
X18139895Y-10640952D02*
X18143705Y-10644762D01*
X18143705Y-10644762D02*
X18147514Y-10652381D01*
X18147514Y-10652381D02*
X18147514Y-10667619D01*
X18147514Y-10667619D02*
X18143705Y-10675238D01*
X18143705Y-10675238D02*
X18139895Y-10679048D01*
X18139895Y-10679048D02*
X18132276Y-10682857D01*
%TO.C,U1*%
X13830490Y-10520952D02*
X13765728Y-10520952D01*
X13765728Y-10520952D02*
X13758109Y-10517143D01*
X13758109Y-10517143D02*
X13754300Y-10513333D01*
X13754300Y-10513333D02*
X13750490Y-10505714D01*
X13750490Y-10505714D02*
X13750490Y-10490476D01*
X13750490Y-10490476D02*
X13754300Y-10482857D01*
X13754300Y-10482857D02*
X13758109Y-10479048D01*
X13758109Y-10479048D02*
X13765728Y-10475238D01*
X13765728Y-10475238D02*
X13830490Y-10475238D01*
X13750490Y-10395238D02*
X13750490Y-10440952D01*
X13750490Y-10418095D02*
X13830490Y-10418095D01*
X13830490Y-10418095D02*
X13819062Y-10425714D01*
X13819062Y-10425714D02*
X13811443Y-10433333D01*
X13811443Y-10433333D02*
X13807633Y-10440952D01*
%TO.C,D3*%
X15942990Y-10759048D02*
X16022990Y-10759048D01*
X16022990Y-10759048D02*
X16022990Y-10740000D01*
X16022990Y-10740000D02*
X16019181Y-10728571D01*
X16019181Y-10728571D02*
X16011562Y-10720952D01*
X16011562Y-10720952D02*
X16003943Y-10717143D01*
X16003943Y-10717143D02*
X15988705Y-10713333D01*
X15988705Y-10713333D02*
X15977276Y-10713333D01*
X15977276Y-10713333D02*
X15962038Y-10717143D01*
X15962038Y-10717143D02*
X15954419Y-10720952D01*
X15954419Y-10720952D02*
X15946800Y-10728571D01*
X15946800Y-10728571D02*
X15942990Y-10740000D01*
X15942990Y-10740000D02*
X15942990Y-10759048D01*
X16022990Y-10686667D02*
X16022990Y-10637143D01*
X16022990Y-10637143D02*
X15992514Y-10663809D01*
X15992514Y-10663809D02*
X15992514Y-10652381D01*
X15992514Y-10652381D02*
X15988705Y-10644762D01*
X15988705Y-10644762D02*
X15984895Y-10640952D01*
X15984895Y-10640952D02*
X15977276Y-10637143D01*
X15977276Y-10637143D02*
X15958228Y-10637143D01*
X15958228Y-10637143D02*
X15950609Y-10640952D01*
X15950609Y-10640952D02*
X15946800Y-10644762D01*
X15946800Y-10644762D02*
X15942990Y-10652381D01*
X15942990Y-10652381D02*
X15942990Y-10675238D01*
X15942990Y-10675238D02*
X15946800Y-10682857D01*
X15946800Y-10682857D02*
X15950609Y-10686667D01*
%TO.C,TP4*%
X14010609Y-9615238D02*
X14006800Y-9619048D01*
X14006800Y-9619048D02*
X14002990Y-9630476D01*
X14002990Y-9630476D02*
X14002990Y-9638095D01*
X14002990Y-9638095D02*
X14006800Y-9649524D01*
X14006800Y-9649524D02*
X14014419Y-9657143D01*
X14014419Y-9657143D02*
X14022038Y-9660952D01*
X14022038Y-9660952D02*
X14037276Y-9664762D01*
X14037276Y-9664762D02*
X14048705Y-9664762D01*
X14048705Y-9664762D02*
X14063943Y-9660952D01*
X14063943Y-9660952D02*
X14071562Y-9657143D01*
X14071562Y-9657143D02*
X14079181Y-9649524D01*
X14079181Y-9649524D02*
X14082990Y-9638095D01*
X14082990Y-9638095D02*
X14082990Y-9630476D01*
X14082990Y-9630476D02*
X14079181Y-9619048D01*
X14079181Y-9619048D02*
X14075371Y-9615238D01*
X14002990Y-9542857D02*
X14002990Y-9580952D01*
X14002990Y-9580952D02*
X14082990Y-9580952D01*
X14002990Y-9516190D02*
X14082990Y-9516190D01*
X14002990Y-9470476D02*
X14048705Y-9504762D01*
X14082990Y-9470476D02*
X14037276Y-9516190D01*
%TO.C,R2*%
X14247990Y-11063333D02*
X14286086Y-11090000D01*
X14247990Y-11109048D02*
X14327990Y-11109048D01*
X14327990Y-11109048D02*
X14327990Y-11078571D01*
X14327990Y-11078571D02*
X14324181Y-11070952D01*
X14324181Y-11070952D02*
X14320371Y-11067143D01*
X14320371Y-11067143D02*
X14312752Y-11063333D01*
X14312752Y-11063333D02*
X14301324Y-11063333D01*
X14301324Y-11063333D02*
X14293705Y-11067143D01*
X14293705Y-11067143D02*
X14289895Y-11070952D01*
X14289895Y-11070952D02*
X14286086Y-11078571D01*
X14286086Y-11078571D02*
X14286086Y-11109048D01*
X14320371Y-11032857D02*
X14324181Y-11029048D01*
X14324181Y-11029048D02*
X14327990Y-11021429D01*
X14327990Y-11021429D02*
X14327990Y-11002381D01*
X14327990Y-11002381D02*
X14324181Y-10994762D01*
X14324181Y-10994762D02*
X14320371Y-10990952D01*
X14320371Y-10990952D02*
X14312752Y-10987143D01*
X14312752Y-10987143D02*
X14305133Y-10987143D01*
X14305133Y-10987143D02*
X14293705Y-10990952D01*
X14293705Y-10990952D02*
X14247990Y-11036667D01*
X14247990Y-11036667D02*
X14247990Y-10987143D01*
%TO.C,R5*%
X13922990Y-10363333D02*
X13961086Y-10390000D01*
X13922990Y-10409048D02*
X14002990Y-10409048D01*
X14002990Y-10409048D02*
X14002990Y-10378571D01*
X14002990Y-10378571D02*
X13999181Y-10370952D01*
X13999181Y-10370952D02*
X13995371Y-10367143D01*
X13995371Y-10367143D02*
X13987752Y-10363333D01*
X13987752Y-10363333D02*
X13976324Y-10363333D01*
X13976324Y-10363333D02*
X13968705Y-10367143D01*
X13968705Y-10367143D02*
X13964895Y-10370952D01*
X13964895Y-10370952D02*
X13961086Y-10378571D01*
X13961086Y-10378571D02*
X13961086Y-10409048D01*
X14002990Y-10290952D02*
X14002990Y-10329048D01*
X14002990Y-10329048D02*
X13964895Y-10332857D01*
X13964895Y-10332857D02*
X13968705Y-10329048D01*
X13968705Y-10329048D02*
X13972514Y-10321429D01*
X13972514Y-10321429D02*
X13972514Y-10302381D01*
X13972514Y-10302381D02*
X13968705Y-10294762D01*
X13968705Y-10294762D02*
X13964895Y-10290952D01*
X13964895Y-10290952D02*
X13957276Y-10287143D01*
X13957276Y-10287143D02*
X13938228Y-10287143D01*
X13938228Y-10287143D02*
X13930609Y-10290952D01*
X13930609Y-10290952D02*
X13926800Y-10294762D01*
X13926800Y-10294762D02*
X13922990Y-10302381D01*
X13922990Y-10302381D02*
X13922990Y-10321429D01*
X13922990Y-10321429D02*
X13926800Y-10329048D01*
X13926800Y-10329048D02*
X13930609Y-10332857D01*
%TO.C,D5*%
X15042990Y-10759048D02*
X15122990Y-10759048D01*
X15122990Y-10759048D02*
X15122990Y-10740000D01*
X15122990Y-10740000D02*
X15119181Y-10728571D01*
X15119181Y-10728571D02*
X15111562Y-10720952D01*
X15111562Y-10720952D02*
X15103943Y-10717143D01*
X15103943Y-10717143D02*
X15088705Y-10713333D01*
X15088705Y-10713333D02*
X15077276Y-10713333D01*
X15077276Y-10713333D02*
X15062038Y-10717143D01*
X15062038Y-10717143D02*
X15054419Y-10720952D01*
X15054419Y-10720952D02*
X15046800Y-10728571D01*
X15046800Y-10728571D02*
X15042990Y-10740000D01*
X15042990Y-10740000D02*
X15042990Y-10759048D01*
X15122990Y-10640952D02*
X15122990Y-10679048D01*
X15122990Y-10679048D02*
X15084895Y-10682857D01*
X15084895Y-10682857D02*
X15088705Y-10679048D01*
X15088705Y-10679048D02*
X15092514Y-10671429D01*
X15092514Y-10671429D02*
X15092514Y-10652381D01*
X15092514Y-10652381D02*
X15088705Y-10644762D01*
X15088705Y-10644762D02*
X15084895Y-10640952D01*
X15084895Y-10640952D02*
X15077276Y-10637143D01*
X15077276Y-10637143D02*
X15058228Y-10637143D01*
X15058228Y-10637143D02*
X15050609Y-10640952D01*
X15050609Y-10640952D02*
X15046800Y-10644762D01*
X15046800Y-10644762D02*
X15042990Y-10652381D01*
X15042990Y-10652381D02*
X15042990Y-10671429D01*
X15042990Y-10671429D02*
X15046800Y-10679048D01*
X15046800Y-10679048D02*
X15050609Y-10682857D01*
%TO.C,R3*%
X14247990Y-10713333D02*
X14286086Y-10740000D01*
X14247990Y-10759048D02*
X14327990Y-10759048D01*
X14327990Y-10759048D02*
X14327990Y-10728571D01*
X14327990Y-10728571D02*
X14324181Y-10720952D01*
X14324181Y-10720952D02*
X14320371Y-10717143D01*
X14320371Y-10717143D02*
X14312752Y-10713333D01*
X14312752Y-10713333D02*
X14301324Y-10713333D01*
X14301324Y-10713333D02*
X14293705Y-10717143D01*
X14293705Y-10717143D02*
X14289895Y-10720952D01*
X14289895Y-10720952D02*
X14286086Y-10728571D01*
X14286086Y-10728571D02*
X14286086Y-10759048D01*
X14327990Y-10686667D02*
X14327990Y-10637143D01*
X14327990Y-10637143D02*
X14297514Y-10663809D01*
X14297514Y-10663809D02*
X14297514Y-10652381D01*
X14297514Y-10652381D02*
X14293705Y-10644762D01*
X14293705Y-10644762D02*
X14289895Y-10640952D01*
X14289895Y-10640952D02*
X14282276Y-10637143D01*
X14282276Y-10637143D02*
X14263228Y-10637143D01*
X14263228Y-10637143D02*
X14255609Y-10640952D01*
X14255609Y-10640952D02*
X14251800Y-10644762D01*
X14251800Y-10644762D02*
X14247990Y-10652381D01*
X14247990Y-10652381D02*
X14247990Y-10675238D01*
X14247990Y-10675238D02*
X14251800Y-10682857D01*
X14251800Y-10682857D02*
X14255609Y-10686667D01*
%TO.C,D4*%
X15492990Y-10759048D02*
X15572990Y-10759048D01*
X15572990Y-10759048D02*
X15572990Y-10740000D01*
X15572990Y-10740000D02*
X15569181Y-10728571D01*
X15569181Y-10728571D02*
X15561562Y-10720952D01*
X15561562Y-10720952D02*
X15553943Y-10717143D01*
X15553943Y-10717143D02*
X15538705Y-10713333D01*
X15538705Y-10713333D02*
X15527276Y-10713333D01*
X15527276Y-10713333D02*
X15512038Y-10717143D01*
X15512038Y-10717143D02*
X15504419Y-10720952D01*
X15504419Y-10720952D02*
X15496800Y-10728571D01*
X15496800Y-10728571D02*
X15492990Y-10740000D01*
X15492990Y-10740000D02*
X15492990Y-10759048D01*
X15546324Y-10644762D02*
X15492990Y-10644762D01*
X15576800Y-10663809D02*
X15519657Y-10682857D01*
X15519657Y-10682857D02*
X15519657Y-10633333D01*
%TO.C,C1*%
X13760609Y-11173333D02*
X13756800Y-11177143D01*
X13756800Y-11177143D02*
X13752990Y-11188571D01*
X13752990Y-11188571D02*
X13752990Y-11196190D01*
X13752990Y-11196190D02*
X13756800Y-11207619D01*
X13756800Y-11207619D02*
X13764419Y-11215238D01*
X13764419Y-11215238D02*
X13772038Y-11219047D01*
X13772038Y-11219047D02*
X13787276Y-11222857D01*
X13787276Y-11222857D02*
X13798705Y-11222857D01*
X13798705Y-11222857D02*
X13813943Y-11219047D01*
X13813943Y-11219047D02*
X13821562Y-11215238D01*
X13821562Y-11215238D02*
X13829181Y-11207619D01*
X13829181Y-11207619D02*
X13832990Y-11196190D01*
X13832990Y-11196190D02*
X13832990Y-11188571D01*
X13832990Y-11188571D02*
X13829181Y-11177143D01*
X13829181Y-11177143D02*
X13825371Y-11173333D01*
X13752990Y-11097143D02*
X13752990Y-11142857D01*
X13752990Y-11120000D02*
X13832990Y-11120000D01*
X13832990Y-11120000D02*
X13821562Y-11127619D01*
X13821562Y-11127619D02*
X13813943Y-11135238D01*
X13813943Y-11135238D02*
X13810133Y-11142857D01*
%TO.C,R4*%
X13452990Y-10203333D02*
X13491086Y-10230000D01*
X13452990Y-10249048D02*
X13532990Y-10249048D01*
X13532990Y-10249048D02*
X13532990Y-10218571D01*
X13532990Y-10218571D02*
X13529181Y-10210952D01*
X13529181Y-10210952D02*
X13525371Y-10207143D01*
X13525371Y-10207143D02*
X13517752Y-10203333D01*
X13517752Y-10203333D02*
X13506324Y-10203333D01*
X13506324Y-10203333D02*
X13498705Y-10207143D01*
X13498705Y-10207143D02*
X13494895Y-10210952D01*
X13494895Y-10210952D02*
X13491086Y-10218571D01*
X13491086Y-10218571D02*
X13491086Y-10249048D01*
X13506324Y-10134762D02*
X13452990Y-10134762D01*
X13536800Y-10153809D02*
X13479657Y-10172857D01*
X13479657Y-10172857D02*
X13479657Y-10123333D01*
%TO.C,R1*%
X14247990Y-10363333D02*
X14286086Y-10390000D01*
X14247990Y-10409048D02*
X14327990Y-10409048D01*
X14327990Y-10409048D02*
X14327990Y-10378571D01*
X14327990Y-10378571D02*
X14324181Y-10370952D01*
X14324181Y-10370952D02*
X14320371Y-10367143D01*
X14320371Y-10367143D02*
X14312752Y-10363333D01*
X14312752Y-10363333D02*
X14301324Y-10363333D01*
X14301324Y-10363333D02*
X14293705Y-10367143D01*
X14293705Y-10367143D02*
X14289895Y-10370952D01*
X14289895Y-10370952D02*
X14286086Y-10378571D01*
X14286086Y-10378571D02*
X14286086Y-10409048D01*
X14247990Y-10287143D02*
X14247990Y-10332857D01*
X14247990Y-10310000D02*
X14327990Y-10310000D01*
X14327990Y-10310000D02*
X14316562Y-10317619D01*
X14316562Y-10317619D02*
X14308943Y-10325238D01*
X14308943Y-10325238D02*
X14305133Y-10332857D01*
%TO.C,TP3*%
X14402990Y-9660952D02*
X14482990Y-9660952D01*
X14482990Y-9660952D02*
X14482990Y-9641905D01*
X14482990Y-9641905D02*
X14479181Y-9630476D01*
X14479181Y-9630476D02*
X14471562Y-9622857D01*
X14471562Y-9622857D02*
X14463943Y-9619048D01*
X14463943Y-9619048D02*
X14448705Y-9615238D01*
X14448705Y-9615238D02*
X14437276Y-9615238D01*
X14437276Y-9615238D02*
X14422038Y-9619048D01*
X14422038Y-9619048D02*
X14414419Y-9622857D01*
X14414419Y-9622857D02*
X14406800Y-9630476D01*
X14406800Y-9630476D02*
X14402990Y-9641905D01*
X14402990Y-9641905D02*
X14402990Y-9660952D01*
X14425848Y-9584762D02*
X14425848Y-9546667D01*
X14402990Y-9592381D02*
X14482990Y-9565714D01*
X14482990Y-9565714D02*
X14402990Y-9539048D01*
X14482990Y-9523810D02*
X14482990Y-9478095D01*
X14402990Y-9500952D02*
X14482990Y-9500952D01*
X14425848Y-9455238D02*
X14425848Y-9417143D01*
X14402990Y-9462857D02*
X14482990Y-9436190D01*
X14482990Y-9436190D02*
X14402990Y-9409524D01*
%TO.C,TP2*%
X14802990Y-9615238D02*
X14841086Y-9641905D01*
X14802990Y-9660952D02*
X14882990Y-9660952D01*
X14882990Y-9660952D02*
X14882990Y-9630476D01*
X14882990Y-9630476D02*
X14879181Y-9622857D01*
X14879181Y-9622857D02*
X14875371Y-9619048D01*
X14875371Y-9619048D02*
X14867752Y-9615238D01*
X14867752Y-9615238D02*
X14856324Y-9615238D01*
X14856324Y-9615238D02*
X14848705Y-9619048D01*
X14848705Y-9619048D02*
X14844895Y-9622857D01*
X14844895Y-9622857D02*
X14841086Y-9630476D01*
X14841086Y-9630476D02*
X14841086Y-9660952D01*
X14806800Y-9584762D02*
X14802990Y-9573333D01*
X14802990Y-9573333D02*
X14802990Y-9554286D01*
X14802990Y-9554286D02*
X14806800Y-9546667D01*
X14806800Y-9546667D02*
X14810609Y-9542857D01*
X14810609Y-9542857D02*
X14818228Y-9539048D01*
X14818228Y-9539048D02*
X14825848Y-9539048D01*
X14825848Y-9539048D02*
X14833467Y-9542857D01*
X14833467Y-9542857D02*
X14837276Y-9546667D01*
X14837276Y-9546667D02*
X14841086Y-9554286D01*
X14841086Y-9554286D02*
X14844895Y-9569524D01*
X14844895Y-9569524D02*
X14848705Y-9577143D01*
X14848705Y-9577143D02*
X14852514Y-9580952D01*
X14852514Y-9580952D02*
X14860133Y-9584762D01*
X14860133Y-9584762D02*
X14867752Y-9584762D01*
X14867752Y-9584762D02*
X14875371Y-9580952D01*
X14875371Y-9580952D02*
X14879181Y-9577143D01*
X14879181Y-9577143D02*
X14882990Y-9569524D01*
X14882990Y-9569524D02*
X14882990Y-9550476D01*
X14882990Y-9550476D02*
X14879181Y-9539048D01*
X14882990Y-9516190D02*
X14882990Y-9470476D01*
X14802990Y-9493333D02*
X14882990Y-9493333D01*
%TO.C,D1*%
X16842990Y-10759048D02*
X16922990Y-10759048D01*
X16922990Y-10759048D02*
X16922990Y-10740000D01*
X16922990Y-10740000D02*
X16919181Y-10728571D01*
X16919181Y-10728571D02*
X16911562Y-10720952D01*
X16911562Y-10720952D02*
X16903943Y-10717143D01*
X16903943Y-10717143D02*
X16888705Y-10713333D01*
X16888705Y-10713333D02*
X16877276Y-10713333D01*
X16877276Y-10713333D02*
X16862038Y-10717143D01*
X16862038Y-10717143D02*
X16854419Y-10720952D01*
X16854419Y-10720952D02*
X16846800Y-10728571D01*
X16846800Y-10728571D02*
X16842990Y-10740000D01*
X16842990Y-10740000D02*
X16842990Y-10759048D01*
X16842990Y-10637143D02*
X16842990Y-10682857D01*
X16842990Y-10660000D02*
X16922990Y-10660000D01*
X16922990Y-10660000D02*
X16911562Y-10667619D01*
X16911562Y-10667619D02*
X16903943Y-10675238D01*
X16903943Y-10675238D02*
X16900133Y-10682857D01*
D12*
%TO.C,D2*%
X16504000Y-10886000D02*
X16504000Y-10600000D01*
X16696000Y-10886000D02*
X16504000Y-10886000D01*
X16696000Y-10600000D02*
X16696000Y-10886000D01*
%TO.C,BT1*%
X10965000Y-10970000D02*
G75*
G03*
X10965000Y-10970000I-225000J0D01*
G01*
X10965000Y-10430000D02*
G75*
G03*
X10965000Y-10430000I-225000J0D01*
G01*
%TO.C,D6*%
X18210000Y-10525000D02*
X18210000Y-10625000D01*
X18210000Y-10875000D02*
X18210000Y-10825000D01*
X18410000Y-10575000D02*
X18410000Y-10525000D01*
X18410000Y-10575000D02*
X18435000Y-10600000D01*
X18410000Y-10825000D02*
X18435000Y-10800000D01*
X18410000Y-10875000D02*
X18410000Y-10825000D01*
X18220000Y-10775000D02*
G75*
G03*
X18220000Y-10775000I-10000J0D01*
G01*
%TO.C,U1*%
X13787500Y-10544000D02*
X13707500Y-10544000D01*
X13787500Y-10544000D02*
X13867500Y-10544000D01*
X13787500Y-10856000D02*
X13707500Y-10856000D01*
X13787500Y-10856000D02*
X13867500Y-10856000D01*
D13*
X13652500Y-10880000D02*
G75*
G03*
X13652500Y-10880000I-5000J0D01*
G01*
D12*
%TO.C,D3*%
X16054000Y-10886000D02*
X16054000Y-10600000D01*
X16246000Y-10886000D02*
X16054000Y-10886000D01*
X16246000Y-10600000D02*
X16246000Y-10886000D01*
%TO.C,TP4*%
X14215000Y-9880000D02*
G75*
G03*
X14215000Y-9880000I-175000J0D01*
G01*
%TO.C,R2*%
X14514794Y-10976500D02*
X14560206Y-10976500D01*
X14514794Y-11123500D02*
X14560206Y-11123500D01*
%TO.C,R5*%
X14193500Y-10327294D02*
X14193500Y-10372706D01*
X14046500Y-10327294D02*
X14046500Y-10372706D01*
%TO.C,D5*%
X15154000Y-10886000D02*
X15154000Y-10600000D01*
X15346000Y-10886000D02*
X15154000Y-10886000D01*
X15346000Y-10600000D02*
X15346000Y-10886000D01*
%TO.C,R3*%
X14514794Y-10626500D02*
X14560206Y-10626500D01*
X14514794Y-10773500D02*
X14560206Y-10773500D01*
%TO.C,D4*%
X15604000Y-10886000D02*
X15604000Y-10600000D01*
X15796000Y-10886000D02*
X15604000Y-10886000D01*
X15796000Y-10600000D02*
X15796000Y-10886000D01*
%TO.C,C1*%
X13816125Y-11063500D02*
X13763875Y-11063500D01*
X13816125Y-10916500D02*
X13763875Y-10916500D01*
%TO.C,R4*%
X13566500Y-10212706D02*
X13566500Y-10167294D01*
X13713500Y-10212706D02*
X13713500Y-10167294D01*
%TO.C,R1*%
X14514794Y-10276500D02*
X14560206Y-10276500D01*
X14514794Y-10423500D02*
X14560206Y-10423500D01*
%TO.C,TP3*%
X14615000Y-9880000D02*
G75*
G03*
X14615000Y-9880000I-175000J0D01*
G01*
%TO.C,TP2*%
X15015000Y-9880000D02*
G75*
G03*
X15015000Y-9880000I-175000J0D01*
G01*
%TO.C,D1*%
X16954000Y-10886000D02*
X16954000Y-10600000D01*
X17146000Y-10886000D02*
X16954000Y-10886000D01*
X17146000Y-10600000D02*
X17146000Y-10886000D01*
%TD*%
M02*
